<svg height="512pt" viewBox="0 -41 512 511" width="512pt" xmlns="http://www.w3.org/2000/svg"><path d="m156.808594 100.800781v43.75l-10.855469 235.507813c-1.351563.398437-21.042969 39.90625-21.042969 17.40625l-84.648437-16.800782c-8.351563 0-15.109375-6.757812-15.109375-15.097656v-264.765625c0-8.339843 6.757812-15.101562 15.109375-15.101562h101.449219c8.335937 0 15.097656 6.761719 15.097656 15.101562zm0 0" fill="#71adbf"/><path d="m156.808594 100.800781v43.75l.058594 241.417969c-1.347657.398438-16.550782 3.265625-18.023438 3.265625l-53.128906-8.566406c-8.351563 0-15.109375-6.761719-15.109375-15.101563v-264.765625c0-8.339843 6.757812-15.097656 15.109375-15.097656h55.996094c8.335937-.003906 15.097656 6.757813 15.097656 15.097656zm0 0" fill="#8fc4d8"/><path d="m491.675781 223.835938v94.566406c0 34.386718-27.875 62.265625-62.265625 62.265625l-112.109375 8.566406-160.867187-8.566406 34.855468-65.183594h54.417969c-30.050781 0-54.417969-24.355469-54.417969-54.40625v-37.242187c0-34.386719 27.878907-62.265626 62.265626-62.265626h175.855468c34.390625 0 62.265625 27.878907 62.265625 62.265626zm0 0" fill="#91b8d8"/><path d="m491.675781 223.835938v72.621093c0 34.386719-27.875 62.265625-62.265625 62.265625h-192.144531v-43.238281h54.417969c-17.890625 0-33.761719-8.628906-43.675782-21.941406-6.75-9.058594-10.742187-20.300781-10.742187-32.464844v-37.242187c0-34.386719 27.878906-62.265626 62.265625-62.265626h129.878906c34.390625 0 62.265625 27.878907 62.265625 62.265626zm0 0" fill="#d8e4ef"/><path d="m394.386719 323.320312h-148.679688c-1.15625 0-2.210937-.027343-3.226562-.085937-4.320313-.246094-7.625-3.949219-7.378907-8.269531.25-4.324219 3.960938-7.625 8.273438-7.378906.714844.039062 1.476562.0625 2.332031.0625h148.679688c13.386719 0 24.28125-10.894532 24.28125-24.285157v-9.707031c0-13.390625-10.894531-24.285156-24.28125-24.285156h-135.148438c-4.328125 0-7.835937-3.507813-7.835937-7.835938s3.507812-7.835937 7.835937-7.835937h135.148438c22.03125 0 39.957031 17.925781 39.957031 39.957031v9.707031c0 22.035157-17.925781 39.957031-39.957031 39.957031zm0 0" fill="#91b8d8"/><path d="m246.34375 290.75c0 49.65625-40.257812 89.914062-89.910156 89.914062-49.65625 0-89.914063-40.257812-89.914063-89.914062 0-37.40625 22.839844-69.472656 55.324219-83.015625v-63.183594h69.175781v63.183594c32.484375 13.542969 55.324219 45.609375 55.324219 83.015625zm0 0" fill="#e08ca4"/><path d="m156.433594 380.664062c-49.65625 0-89.914063-40.257812-89.914063-89.914062 0-37.40625 22.839844-69.472656 55.324219-83.015625v-63.183594h17.167969v63.183594c-16.371094 13.542969-27.875 45.609375-27.875 83.015625 0 49.65625 20.28125 89.914062 45.296875 89.914062zm0 0" fill="#c9508b"/><path d="m121.84375 144.550781h69.175781v37.082031h-69.175781zm0 0" fill="#d8e4ef"/><path d="m121.84375 144.550781h17.167969v37.082031h-17.167969zm0 0" fill="#91b8d8"/><path d="m512 380.664062c-8.765625 29.5625-35.933594 49.832032-66.757812 49.832032h-378.484376c-15.410156 0-29.914062-5.066406-41.660156-13.835938-11.742187-8.753906-20.71875-21.21875-25.097656-35.996094zm0 0" fill="#996136"/><path d="m512 380.664062c-8.765625 29.5625-35.933594 49.832032-66.757812 49.832032h-267.839844c-15.421875 0-29.914063-5.066406-41.648438-13.835938-11.746094-8.753906-20.730468-21.21875-25.109375-35.996094zm0 0" fill="#c28e63"/><path d="m121.15625 40.382812v45.316407h-60.34375v-45.316407c0-8.296874 6.730469-15.023437 15.027344-15.023437h30.289062c8.296875 0 15.027344 6.726563 15.027344 15.023437zm0 0" fill="#eda532"/><path d="m121.15625 40.382812v45.316407h-38.753906v-45.316407c0-8.296874 6.726562-15.023437 15.023437-15.023437h8.703125c8.296875 0 15.027344 6.726563 15.027344 15.023437zm0 0" fill="#f7e680"/><path d="m339.867188 161.132812c-29.824219 2.726563-60.59375-7.324218-83.425782-30.15625-22.84375-22.832031-32.882812-53.601562-30.167968-83.425781 7.355468-.667969 14.777343-.5625 22.121093.3125 22.414063 2.699219 44.117188 12.644531 61.316407 29.84375 22.828124 22.832031 32.871093 53.605469 30.15625 83.425781zm0 0" fill="#55b774"/><path d="m339.867188 161.132812c-29.730469-3.617187-57.699219-19.917968-75.214844-47.050781-13.183594-20.429687-18.335938-43.742187-16.257813-66.21875 22.414063 2.699219 44.117188 12.644531 61.316407 29.84375 22.828124 22.832031 32.871093 53.605469 30.15625 83.425781zm0 0" fill="#9fd179"/><path d="m423.289062 130.976562c-22.828124 22.832032-53.601562 32.882813-83.421874 30.15625-2.71875-29.820312 7.324218-60.59375 30.152343-83.425781 6.835938-6.832031 14.378907-12.527343 22.40625-17.0625 18.765625-10.636719 40.132813-15.003906 61.03125-13.09375 2.714844 29.824219-7.324219 60.59375-30.167969 83.425781zm0 0" fill="#9fd179"/><path d="m391.191406 88.773438c-5.738281 31.785156-25.277344 57.582031-51.324218 72.359374-2.71875-29.820312 7.324218-60.59375 30.152343-83.425781 6.835938-6.832031 14.378907-12.527343 22.40625-17.0625.84375 9.175781.480469 18.621094-1.234375 28.128907zm0 0" fill="#55b774"/><path d="m377.535156 80.816406c0 32.292969-14.65625 61.15625-37.667968 80.320313-23.015626-19.164063-37.671876-48.027344-37.671876-80.320313 0-32.289062 14.65625-61.152344 37.671876-80.316406 23.011718 19.164062 37.667968 48.027344 37.667968 80.316406zm0 0" fill="#9fd179"/><path d="m318.332031 80.820312c0 32.289063 8.378907 61.148438 21.535157 80.3125-23.019532-19.164062-37.671876-48.023437-37.671876-80.3125 0-32.296874 14.652344-61.15625 37.671876-80.320312-13.15625 19.164062-21.535157 48.023438-21.535157 80.320312zm0 0" fill="#55b774"/></svg>