<svg id="Layer_1" height="512" viewBox="0 0 128 128" width="512" xmlns="http://www.w3.org/2000/svg" data-name="Layer 1"><path d="m120.64 42.67-.88 83.6a1.748 1.748 0 0 1 -1.75 1.73h-109.02a1.756 1.756 0 0 1 -1.24-.51 1.8 1.8 0 0 1 -.51-1.24l.12-83.59a14.4 14.4 0 0 1 10.35-15.28l21.55-5.55a8.479 8.479 0 0 0 6.13-6.2l3.54-14.3a1.745 1.745 0 0 1 1.7-1.33h26.74a1.745 1.745 0 0 1 1.7 1.33l3.54 14.3a8.479 8.479 0 0 0 6.13 6.2l21.5 5.53a14.433 14.433 0 0 1 10.4 15.31z" fill="#ffecb3"/><g fill="#ffe082"><path d="m108.92 58.03-.82 2.57a113.042 113.042 0 0 0 -5.219 39.8l1.329 27.6h-3.5l-1.85-38.42-3.83 11.99a1.765 1.765 0 0 1 -1.67 1.22 1.685 1.685 0 0 1 -.53-.09 1.742 1.742 0 0 1 -1.13-2.2l6.94-21.76v-.01l6.95-21.76a1.747 1.747 0 1 1 3.33 1.06z"/><path d="m35.17 102.7a1.685 1.685 0 0 1 -.53.09 1.765 1.765 0 0 1 -1.67-1.22l-3.83-11.99-1.84 38.42h-3.51l1.329-27.6a113.042 113.042 0 0 0 -5.219-39.8l-.82-2.57a1.747 1.747 0 1 1 3.33-1.06l6.95 21.76v.01l6.94 21.76a1.742 1.742 0 0 1 -1.13 2.2z"/><path d="m57.952 51.89a1.748 1.748 0 0 0 -1.96 1.51l-1.692 12.989a7.13 7.13 0 0 1 -2.5 4.563l-4.482 3.748a1.75 1.75 0 1 0 2.244 2.686l4.483-3.747a10.62 10.62 0 0 0 3.73-6.8l1.687-12.989a1.75 1.75 0 0 0 -1.51-1.96z"/><path d="m76.2 70.952a7.128 7.128 0 0 1 -2.5-4.563l-1.691-12.989a1.75 1.75 0 1 0 -3.471.45l1.687 12.99a10.619 10.619 0 0 0 3.73 6.8l4.483 3.747a1.75 1.75 0 1 0 2.244-2.687z"/><path d="m64 84.75a1.75 1.75 0 0 0 -1.75 1.75v16.25a1.75 1.75 0 0 0 3.5 0v-16.25a1.75 1.75 0 0 0 -1.75-1.75z"/><path d="m52.718 115.262a1.75 1.75 0 1 0 -2.77 2.14l2.833 3.667a1.75 1.75 0 1 0 2.77-2.14z"/><path d="m77.736 114.947a1.75 1.75 0 0 0 -2.455.315l-2.833 3.667a1.75 1.75 0 1 0 2.77 2.14l2.833-3.667a1.75 1.75 0 0 0 -.315-2.455z"/></g></svg>