<svg id="Flat" height="512" viewBox="0 0 512 512" width="512" xmlns="http://www.w3.org/2000/svg"><path d="m200 72 24-16v-32h64v32l24 16v80h-112z" fill="#f7cca9"/><path d="m440 488h-368c0-184 64-216 64-216l-24-48-64-32s32-104 72-104 80-16 80-16 0 40 56 40 56-40 56-40 40 16 80 16 72 104 72 104l-64 32-24 48s64 32 64 216z" fill="#ff9494"/><path d="m256 112s0 32-40 32c-27.53 0-43.69-37.89-51.09-61.52a257.032 257.032 0 0 0 35.09-10.48s0 40 56 40z" fill="#ed6f6d"/><path d="m256 112s0 32 40 32c27.53 0 43.69-37.89 51.09-61.52a257.032 257.032 0 0 1 -35.09-10.48s0 40-56 40z" fill="#ed6f6d"/><path d="m48 192s-24 72-24 112 80 144 80 144l81.018 33.758a16 16 0 0 0 21.01-8.827l4.8-12a16 16 0 0 0 -6.917-19.834l-43.911-25.097 3.229-9.688a16 16 0 0 0 -9.236-19.915l-25.993-10.397s-16-48-40-80l24-72z" fill="#f7cca9"/><g fill="#ed6f6d"><path d="m319.99 464a8 8 0 0 1 -1.333-15.887c1.83-.321 44.14-8.282 65.99-59.265a8 8 0 1 1 14.706 6.3c-25.431 59.339-75.9 68.384-78.038 68.74a8.076 8.076 0 0 1 -1.325.112z"/><path d="m136.007 280a8 8 0 0 1 -3.976-14.947c2.362-1.348 58.596-33.053 123.969-33.053a8 8 0 0 1 0 16c-61.168 0-115.489 30.637-116.031 30.946a7.968 7.968 0 0 1 -3.962 1.054z"/><path d="m111.99 232a8 8 0 0 1 -7.881-6.686c-8.578-51.469 32.482-93.22 34.234-94.972a8 8 0 0 1 11.322 11.305c-.371.373-36.982 37.787-29.774 81.037a8.006 8.006 0 0 1 -7.9 9.316z"/></g><path d="m464 192s24 96 24 136-16 48-48 48-144-96-144-96h-96a16 16 0 0 1 -16-16v-16a16 16 0 0 1 16-16h56l1.693-5.078a16 16 0 0 1 23.41-8.66l22.897 13.738s72 16 120 48l-24-56z" fill="#f7cca9"/><path d="m400.01 232a8.006 8.006 0 0 1 -7.9-9.316c7.208-43.25-29.4-80.664-29.774-81.037a8 8 0 0 1 11.322-11.305c1.752 1.752 42.812 43.5 34.234 94.972a8 8 0 0 1 -7.882 6.686z" fill="#ed6f6d"/></svg>